# xmcd
#
# Track frame offsets:
#	150
#	10085
#	29300
#	30765
#	49480
#	65290
#	66882
#	85655
#	90032
#	110410
#	125637
#	126260
#	141007
#	151647
#	165047
#	167320
#	187305
#	191052
#	213080
#	226917
#	228632
#	252787
#	259947
#	278215
#	283797
#
# Disc length: 4037 seconds
#
# Revision: 2
# Processed by: cddbd v1.5.2PL0 Copyright (c) Steve Scherf et al.
# Submitted via: audiograbber 1.83.01
#
DISCID=470fc319
DTITLE=Poison Clan - Ruff Town Behavior
DYEAR=1993
DGENRE=Rap
TTITLE0=Intro
TTITLE1=Afraid Of The Flavor
TTITLE2=Come A Surprise
TTITLE3=Put Shit Pass No Ho
TTITLE4=Some More Shit
TTITLE5=Work For Free
TTITLE6=Peepin
TTITLE7=Pause For The Cause
TTITLE8=Game Recognize Game
TTITLE9=City Boy
TTITLE10=Burn One
TTITLE11=Check Out The Ave. Pt. I
TTITLE12=Let's Get Serious
TTITLE13=Check Out The Ave. Pt. II
TTITLE14=Setting Up
TTITLE15=Sugarhill Style
TTITLE16=True Player Speaks
TTITLE17=Word From A Player
TTITLE18=Ho Stories Pt. II
TTITLE19=Madball Back
TTITLE20=Listen
TTITLE21=M.C. Sundance
TTITLE22=Ruff Town Behavior
TTITLE23=Comin Strap
TTITLE24=Goin' All Out
EXTD=Cashflow420.com
EXTT0=
EXTT1=
EXTT2=
EXTT3=
EXTT4=
EXTT5=
EXTT6=
EXTT7=
EXTT8=
EXTT9=
EXTT10=
EXTT11=
EXTT12=
EXTT13=
EXTT14=
EXTT15=
EXTT16=
EXTT17=
EXTT18=
EXTT19=
EXTT20=
EXTT21=
EXTT22=
EXTT23=
EXTT24=
PLAYORDER=
